<?xml version="1.0" encoding="UTF-8" standalone="no"?>
<!-- Created with Inkscape (http://www.inkscape.org/) -->

<svg
   xmlns:dc="http://purl.org/dc/elements/1.1/"
   xmlns:cc="http://creativecommons.org/ns#"
   xmlns:rdf="http://www.w3.org/1999/02/22-rdf-syntax-ns#"
   xmlns:svg="http://www.w3.org/2000/svg"
   xmlns="http://www.w3.org/2000/svg"
   xmlns:sodipodi="http://sodipodi.sourceforge.net/DTD/sodipodi-0.dtd"
   xmlns:inkscape="http://www.inkscape.org/namespaces/inkscape"
   width="95.381584mm"
   height="32.940971mm"
   viewBox="0 0 95.381584 32.940971"
   version="1.1"
   id="svg8"
   sodipodi:docname="Logo.svg"
   inkscape:version="0.92.1 r15371"
   inkscape:export-filename="C:\Users\Philip\Desktop\ALL Webpage\img\Logo.png"
   inkscape:export-xdpi="96"
   inkscape:export-ydpi="96">
  <defs
     id="defs2">
    <inkscape:path-effect
       effect="spiro"
       id="path-effect4597"
       is_visible="true" />
    <inkscape:path-effect
       effect="spiro"
       id="path-effect4593"
       is_visible="true" />
  </defs>
  <sodipodi:namedview
     id="base"
     pagecolor="#ffffff"
     bordercolor="#666666"
     borderopacity="1.0"
     inkscape:pageopacity="0.0"
     inkscape:pageshadow="2"
     inkscape:zoom="8"
     inkscape:cx="7.3547732"
     inkscape:cy="66.23397"
     inkscape:document-units="mm"
     inkscape:current-layer="layer1"
     showgrid="false"
     inkscape:measure-start="331.33,734.002"
     inkscape:measure-end="339.758,734.034"
     inkscape:window-width="2560"
     inkscape:window-height="1377"
     inkscape:window-x="-8"
     inkscape:window-y="-8"
     inkscape:window-maximized="1"
     inkscape:pagecheckerboard="true" />
  <metadata
     id="metadata5">
    <rdf:RDF>
      <cc:Work
         rdf:about="">
        <dc:format>image/svg+xml</dc:format>
        <dc:type
           rdf:resource="http://purl.org/dc/dcmitype/StillImage" />
        <dc:title></dc:title>
      </cc:Work>
    </rdf:RDF>
  </metadata>
  <g
     inkscape:label="Layer 1"
     inkscape:groupmode="layer"
     id="layer1"
     transform="translate(-64.211583,-75.233108)">
    <path
       style="fill:#000066;fill-opacity:1;stroke:none;stroke-width:0.99999994px;stroke-linecap:butt;stroke-linejoin:miter;stroke-opacity:1"
       d="m 289.2832,284.47266 -46.59375,123.74218 39.52149,0.25391 5.80859,-20.07813 43.31055,0.12696 5.93554,19.95117 40.65821,0.125 -46.59375,-123.99609 z m 20.85352,43.94726 a 14.200194,14.450788 0 0 1 14.19922,14.45117 14.200194,14.450788 0 0 1 -14.19922,14.45118 14.200194,14.450788 0 0 1 -14.20117,-14.45118 14.200194,14.450788 0 0 1 14.20117,-14.45117 z"
       transform="scale(0.26458333)"
       id="path3693"
       inkscape:connector-curvature="0" />
    <path
       style="fill:#9999ff;fill-opacity:1;stroke-width:0.33107647"
       d="m 82.058557,86.328064 a 4.4000001,4.4826826 0 0 0 -4.400249,4.482407 4.4000001,4.4826826 0 0 0 4.400249,4.482935 4.4000001,4.4826826 0 0 0 4.399729,-4.482935 4.4000001,4.4826826 0 0 0 -4.399729,-4.482407 z m -0.0016,0.813404 a 3.624843,3.6931189 0 0 1 3.625101,3.692694 3.624843,3.6931189 0 0 1 -3.625101,3.693225 3.624843,3.6931189 0 0 1 -3.624585,-3.693225 3.624843,3.6931189 0 0 1 3.624585,-3.692694 z"
       id="path3697-9-9-3-4"
       inkscape:connector-curvature="0" />
    <circle
       id="path3697-9"
       cx="92.474731"
       cy="103.09984"
       style="fill:#9999ff;fill-opacity:1;stroke-width:0.19904178"
       r="2.6700001" />
    <circle
       id="path3697-9-9"
       cx="71.258041"
       cy="102.98172"
       style="fill:#9999ff;fill-opacity:1;stroke-width:0.19904177"
       r="2.6700001" />
    <circle
       id="path3697-9-9-3"
       cx="82.074524"
       cy="80.531082"
       style="fill:#9999ff;fill-opacity:1;stroke-width:0.19904177"
       r="2.6700001" />
    <path
       style="fill:#9999ff;fill-opacity:1;stroke:#9999ff;stroke-width:1.06500006;stroke-linecap:butt;stroke-linejoin:miter;stroke-miterlimit:4;stroke-dasharray:none;stroke-opacity:1"
       d="m 72.630492,101.39211 6.815373,-7.784221"
       id="path4572"
       inkscape:connector-curvature="0" />
    <path
       style="fill:#9999ff;fill-opacity:1;stroke:#9999ff;stroke-width:1.06500006;stroke-linecap:butt;stroke-linejoin:miter;stroke-miterlimit:4;stroke-dasharray:none;stroke-opacity:1"
       d="M 91.439586,101.65938 84.624213,93.875158"
       id="path4572-0"
       inkscape:connector-curvature="0" />
    <path
       style="fill:none;stroke:#9999ff;stroke-width:1.06500006;stroke-linecap:butt;stroke-linejoin:miter;stroke-miterlimit:4;stroke-dasharray:none;stroke-opacity:1"
       d="m 76.539311,97.182619 c 1.477146,1.285074 3.420967,2.021552 5.378799,2.037929 1.987093,0.01662 3.971803,-0.709491 5.479024,-2.00452"
       id="path4595"
       inkscape:connector-curvature="0"
       inkscape:path-effect="#path-effect4597"
       inkscape:original-d="m 76.539311,97.182619 c 1.793198,0.690181 3.586131,1.358355 5.378799,2.037929 1.792669,0.679574 3.652946,-1.336612 5.479024,-2.00452" />
    <path
       style="fill:none;stroke:#9999ff;stroke-width:1.06500006;stroke-linecap:butt;stroke-linejoin:miter;stroke-miterlimit:4;stroke-dasharray:none;stroke-opacity:1"
       d="m 82.051744,82.950515 v 3.608138"
       id="path4599"
       inkscape:connector-curvature="0" />
    <path
       style="fill:#000066;fill-opacity:1;stroke:none;stroke-width:0.26458332px;stroke-linecap:butt;stroke-linejoin:miter;stroke-opacity:1"
       d="m 102.99899,75.233108 0.0668,32.940972 h 25.99196 l -0.0334,-8.0515 -15.80231,0.0334 V 75.233108 Z"
       id="path4601"
       inkscape:connector-curvature="0" />
    <path
       style="fill:#000066;fill-opacity:1;stroke:none;stroke-width:0.26458332px;stroke-linecap:butt;stroke-linejoin:miter;stroke-opacity:1"
       d="m 133.53441,75.233108 0.0668,32.940972 h 25.99196 l -0.0334,-8.0515 -15.80231,0.0334 V 75.233108 Z"
       id="path4601-6"
       inkscape:connector-curvature="0" />
  </g>
</svg>
